<?xml version="1.0" encoding="UTF-8" standalone="no"?>
<svg
   xmlns:dc="http://purl.org/dc/elements/1.1/"
   xmlns:cc="http://creativecommons.org/ns#"
   xmlns:rdf="http://www.w3.org/1999/02/22-rdf-syntax-ns#"
   xmlns:svg="http://www.w3.org/2000/svg"
   xmlns="http://www.w3.org/2000/svg"
   xmlns:xlink="http://www.w3.org/1999/xlink"
   xmlns:sodipodi="http://sodipodi.sourceforge.net/DTD/sodipodi-0.dtd"
   xmlns:inkscape="http://www.inkscape.org/namespaces/inkscape"
   version="1.1"
   id="Layer_2"
   x="0px"
   y="0px"
   viewBox="0 0 364.88055 431.8046"
   xml:space="preserve"
   sodipodi:docname="scientist_nobg.svg"
   width="364.88055"
   height="431.8046"
   inkscape:version="1.0.1 (c497b03c, 2020-09-10)"><sodipodi:namedview
   pagecolor="#ffffff"
   bordercolor="#666666"
   borderopacity="1"
   objecttolerance="10"
   gridtolerance="10"
   guidetolerance="10"
   inkscape:pageopacity="0"
   inkscape:pageshadow="2"
   inkscape:window-width="1296"
   inkscape:window-height="800"
   id="namedview863"
   showgrid="false"
   fit-margin-top="0"
   fit-margin-left="0"
   fit-margin-right="0"
   fit-margin-bottom="0"
   inkscape:zoom="0.74752726"
   inkscape:cx="80.739255"
   inkscape:cy="163.18493"
   inkscape:window-x="144"
   inkscape:window-y="25"
   inkscape:window-maximized="0"
   inkscape:current-layer="Layer_2" /><metadata
   id="metadata892"><rdf:RDF><cc:Work
       rdf:about=""><dc:format>image/svg+xml</dc:format><dc:type
         rdf:resource="http://purl.org/dc/dcmitype/StillImage" /><dc:title></dc:title></cc:Work></rdf:RDF></metadata><defs
   id="defs890" />
<style
   type="text/css"
   id="style833">
	.st0{fill:#9BDCFB;}
	.st1{clip-path:url(#XMLID_00000116203599934996981610000009356689265612343996_);fill:#6BDCB6;}
	.st2{fill:none;stroke:#65205D;stroke-width:15;stroke-linecap:round;stroke-linejoin:round;stroke-miterlimit:10;}
	.st3{fill:#FFBEA7;stroke:#65205D;stroke-width:15;stroke-linecap:round;stroke-linejoin:round;stroke-miterlimit:10;}
	.st4{fill:#FFFFFF;stroke:#65205D;stroke-width:15;stroke-linecap:round;stroke-linejoin:round;stroke-miterlimit:10;}
	.st5{fill:#65205D;}
	.st6{fill:#8D6E96;stroke:#65205D;stroke-width:15;stroke-linecap:round;stroke-linejoin:round;stroke-miterlimit:10;}
	.st7{fill:#FFA47C;stroke:#65205D;stroke-width:15;stroke-linecap:round;stroke-linejoin:round;stroke-miterlimit:10;}
</style>
<g
   id="g885"
   transform="translate(-105.01945,-70.395425)">
	
	<g
   id="g883">
		<g
   id="g847">
			<defs
   id="defs838">
				<path
   id="XMLID_00000102521794630601149400000016076292673865853322_"
   d="m 136.3,462 c 0,0 189.7,91.3 326.1,-21.1 l -9.4,-37.5 -35.1,-62.9 -241.1,17.9 -37.4,69.2 z" />
			</defs>
			<use
   xlink:href="#XMLID_00000102521794630601149400000016076292673865853322_"
   style="overflow:visible;fill:#ffffff"
   id="use840"
   x="0"
   y="0"
   width="100%"
   height="100%" />
			<clipPath
   id="XMLID_00000162335065775771976850000017122368072303528075_">
				<use
   xlink:href="#XMLID_00000102521794630601149400000016076292673865853322_"
   style="overflow:visible"
   id="use842"
   x="0"
   y="0"
   width="100%"
   height="100%" />
			</clipPath>
			<path
   style="fill:#6bdcb6"
   d="m 233.5,350.5 c -1.1,2.6 56.8,159.8 56.8,159.8 l 47,-6.6 13.2,-175.5 z"
   clip-path="url(#XMLID_00000162335065775771976850000017122368072303528075_)"
   id="path845" />
		</g>
		<path
   class="st2"
   d="m 136.4,457.3 c 0,0 -4.1,-88.4 78.4,-123.5 82.5,-35.1 228.9,-48.2 247.6,100"
   id="path849" />
		<polyline
   class="st3"
   points="233.5,365 302,413.3 358.6,358.4   "
   id="polyline851" />
		<line
   class="st4"
   x1="237.5"
   y1="350.5"
   x2="284.29999"
   y2="494.70001"
   id="line853" />
		<line
   class="st4"
   x1="348.5"
   y1="347.39999"
   x2="337.29999"
   y2="489.70001"
   id="line855" />
		<line
   class="st4"
   x1="272.10001"
   y1="457.20001"
   x2="175.10001"
   y2="360.60001"
   id="line857" />
		<line
   class="st4"
   x1="342.89999"
   y1="447.10001"
   x2="417.89999"
   y2="340.60001"
   id="line859" />
		<circle
   class="st5"
   cx="253.39999"
   cy="480.70001"
   r="8.3999996"
   id="circle861" />
		<path
   class="st3"
   d="m 420.6,139.8 c 0,0 77.7,134.3 -18.9,197.1 C 346.4,370.3 302,384.8 197.1,358 132.1,343.5 148.8,243.4 148.8,243.4 L 179.1,139.8 385,116.1 Z"
   id="path863" />
		<path
   class="st6"
   d="m 142.5,172.3 c 0,0 -57,71.9 -13.8,99.8 58.8,38 60.9,-108.3 60.9,-108.3 0,0 84,59.1 90.1,-14.9 0,0 132.6,52.4 160.1,-17 17.9,-48.6 -183.5,-85.8 -241.5,-13.2 0,0 -3.2,-27.2 -27.8,-26.6 -24.6,0.6 -11.7,45.1 -11.7,45.1 0,0 -28.1,-17 -34.8,2.6 -6.7,19.6 18.5,32.5 18.5,32.5 z"
   id="path865" />
		<ellipse
   transform="matrix(0.9712,-0.2382,0.2382,0.9712,-49,78.2915)"
   class="st7"
   cx="299.39999"
   cy="241.89999"
   rx="34.799999"
   ry="22.799999"
   id="ellipse867" />
		<path
   class="st3"
   d="m 261.9,285.2 c 0,0 46.8,37.2 81.7,-14.3"
   id="path869" />
		<circle
   class="st5"
   cx="229.39999"
   cy="245.7"
   r="9.3999996"
   id="circle871" />
		<circle
   class="st5"
   cx="364.5"
   cy="209.10001"
   r="9.3999996"
   id="circle873" />
		<line
   class="st3"
   x1="198.3"
   y1="324.20001"
   x2="204.39999"
   y2="308.39999"
   id="line875" />
		<line
   class="st3"
   x1="266.20001"
   y1="328.29999"
   x2="264.70001"
   y2="340.60001"
   id="line877" />
		<line
   class="st3"
   x1="339"
   y1="325.60001"
   x2="341.39999"
   y2="337.89999"
   id="line879" />
		<line
   class="st3"
   x1="390"
   y1="297.20001"
   x2="398.79999"
   y2="308.39999"
   id="line881" />
	</g>
</g>
</svg>
